<svg width="56" height="24" viewBox="0 0 56 24" fill="none" xmlns="http://www.w3.org/2000/svg">
<path d="M9.82456 4.46683V20H6.28427L4.18311 12.9386V20H0.805921V4.46683H4.18311L6.44737 11.4611V4.46683H9.82456ZM11.4556 4.46683H18.1908V7.57538H15.4948V10.5208H18.0181V13.4759H15.4948V16.8914H18.4594V20H11.4556V4.46683ZM27.4973 4.46683V7.57538H25.0987V20H21.0595V7.57538H18.6705V4.46683H27.4973ZM37.4369 4.46683V20H33.8967L31.7955 12.9386V20H28.4183V4.46683H31.7955L34.0598 11.4611V4.46683H37.4369ZM39.068 4.46683H45.8032V7.57538H43.1072V10.5208H45.6305V13.4759H43.1072V16.8914H46.0718V20H39.068V4.46683ZM55.1096 4.46683V7.57538H52.7111V20H48.6719V7.57538H46.2829V4.46683H55.1096Z" fill="url(#paint0_linear)"/>
<defs>
<linearGradient id="paint0_linear" x1="0" y1="0" x2="70.2707" y2="33.4405" gradientUnits="userSpaceOnUse">
<stop stop-color="#FF0021"/>
<stop offset="1" stop-color="#AA011A"/>
</linearGradient>
</defs>
</svg>
